<svg width="24" height="24" viewBox="0 0 24 24" fill="none" xmlns="http://www.w3.org/2000/svg">
<path d="M9 20V18H4.6155C4.15517 18 3.77083 17.8458 3.4625 17.5375C3.15417 17.2292 3 16.8448 3 16.3845V5.6155C3 5.15517 3.15417 4.77083 3.4625 4.4625C3.77083 4.15417 4.15517 4 4.6155 4H19.3845C19.8448 4 20.2292 4.15417 20.5375 4.4625C20.8458 4.77083 21 5.15517 21 5.6155V16.3845C21 16.8448 20.8458 17.2292 20.5375 17.5375C20.2292 17.8458 19.8448 18 19.3845 18H15V20H9ZM4.6155 17H19.3845C19.5385 17 19.6796 16.9359 19.8078 16.8077C19.9359 16.6796 20 16.5385 20 16.3845V5.6155C20 5.4615 19.9359 5.32042 19.8078 5.19225C19.6796 5.06408 19.5385 5 19.3845 5H4.6155C4.4615 5 4.32042 5.06408 4.19225 5.19225C4.06408 5.32042 4 5.4615 4 5.6155V16.3845C4 16.5385 4.06408 16.6796 4.19225 16.8077C4.32042 16.9359 4.4615 17 4.6155 17Z" fill="#E3E3E3"/>
</svg>
