<svg width="24" height="24" viewBox="0 0 24 24" fill="none" xmlns="http://www.w3.org/2000/svg">
<path d="M3.5 4.5V16.5H6.33301V20.9648L12.6582 16.5H21.5V4.5H3.5ZM20.5 15.5H12.3418L7.33301 19.0352V15.5H4.5V5.5H20.5V15.5Z" fill="white"/>
<path d="M17.5 15.5H18.5V16.5H17.5V15.5Z" fill="white"/>
<path d="M16.5 10.5C16.5 11.0523 16.9477 11.5 17.5 11.5C18.0523 11.5 18.5 11.0523 18.5 10.5C18.5 9.94772 18.0523 9.5 17.5 9.5C16.9477 9.5 16.5 9.94772 16.5 10.5Z" fill="white"/>
<path d="M11.5 10.5C11.5 11.0523 11.9477 11.5 12.5 11.5C13.0523 11.5 13.5 11.0523 13.5 10.5C13.5 9.94772 13.0523 9.5 12.5 9.5C11.9477 9.5 11.5 9.94772 11.5 10.5Z" fill="white"/>
<path d="M6.5 10.5C6.5 11.0523 6.94772 11.5 7.5 11.5C8.05228 11.5 8.5 11.0523 8.5 10.5C8.5 9.94772 8.05228 9.5 7.5 9.5C6.94772 9.5 6.5 9.94772 6.5 10.5Z" fill="white"/>
</svg>
