<svg width="24" height="24" viewBox="0 0 24 24" fill="none" xmlns="http://www.w3.org/2000/svg">
<path d="M3 4V17H5.83301V21.9297L12.8184 17H22V4H3ZM20 15H12.1826L11.9229 15.1826L7.83301 18.0693V15H5V6H20V15Z" fill="white"/>
<path d="M16 10.5C16 11.3284 16.6716 12 17.5 12C18.3284 12 19 11.3284 19 10.5C19 9.67157 18.3284 9 17.5 9C16.6716 9 16 9.67157 16 10.5Z" fill="white"/>
<path d="M11 10.5C11 11.3284 11.6716 12 12.5 12C13.3284 12 14 11.3284 14 10.5C14 9.67157 13.3284 9 12.5 9C11.6716 9 11 9.67157 11 10.5Z" fill="white"/>
<path d="M6 10.5C6 11.3284 6.67157 12 7.5 12C8.32843 12 9 11.3284 9 10.5C9 9.67157 8.32843 9 7.5 9C6.67157 9 6 9.67157 6 10.5Z" fill="white"/>
</svg>
