<svg width="24" height="24" viewBox="0 0 24 24" fill="none" xmlns="http://www.w3.org/2000/svg">
<path d="M17.5 15.5H18.5V16.5H17.5V15.5Z" fill="white"/>
<path d="M18 15.5V16.5H6V15.5H18Z" fill="black"/>
<path d="M9.5 3V4H8.5V3H9.5ZM15.5 4H14.5V3H15.5V4ZM13.5 4H10.5V3H13.5V4Z" fill="black"/>
<path d="M14.5 9.49805C16.849 10.4776 18.5 12.796 18.5 15.5C18.5 19.0899 15.5899 22 12 22C8.41015 22 5.5 19.0899 5.5 15.5C5.5 12.796 7.15103 10.4776 9.5 9.49805V4H10.5V10.1641L9.88477 10.4209C7.89529 11.2506 6.5 13.2136 6.5 15.5C6.5 18.5376 8.96243 21 12 21C15.0376 21 17.5 18.5376 17.5 15.5C17.5 13.2136 16.1047 11.2506 14.1152 10.4209L13.5 10.1641V4H14.5V9.49805ZM10.5 3H9.5V2H10.5V3ZM14.5 3H13.5V2H14.5V3Z" fill="black"/>
</svg>
