<?xml version="1.0" encoding="UTF-8"?>
<svg id="_레이어_2" data-name="레이어 2" xmlns="http://www.w3.org/2000/svg" viewBox="0 0 402.42 160">
  <defs>
    <style>
      .cls-1 {
        fill-rule: evenodd;
      }
    </style>
  </defs>
  <g id="_레이어_1-2" data-name="레이어 1">
    <g>
      <path class="cls-1" d="M342.42,130V4c0-2.21-1.79-4-4-4h-52c-2.21,0-4,1.79-4,4v152c0,2.21,1.79,4,4,4h112c2.21,0,4-1.79,4-4v-20c0-2.21-1.79-4-4-4h-54c-1.1,0-2-.9-2-2Z"/>
      <path class="cls-1" d="M92,4v60.39c0,1.1-.9,2-2,2h-28c-1.1,0-2-.9-2-2V4C60,1.79,58.21,0,56,0H4C1.79,0,0,1.79,0,4v152c0,2.21,1.79,4,4,4h52c2.21,0,4-1.79,4-4v-74.74c0-1.1.9-2,2-2h28c1.1,0,2,.9,2,2v74.74c0,2.21,1.79,4,4,4h20c2.21,0,4-1.79,4-4V4C120,1.79,118.21,0,116,0h-20c-2.21,0-4,1.79-4,4Z"/>
      <path class="cls-1" d="M272.89,153.79l-48.48-73.17c-.54-.81-.41-1.89.29-2.56l48.01-45.49c.8-.76,1.25-1.81,1.25-2.9V4C273.96,1.79,272.17,0,269.96,0h-51c-2.21,0-4,1.79-4,4v55.72c0,1.98-2.57,2.76-3.67,1.1L172.18,1.79C171.44.67,170.19,0,168.85,0h-36.85c-2.21,0-4,1.79-4,4v152c0,2.21,1.79,4,4,4h35c2.21,0,4-1.79,4-4v-69.74c0-1.98,2.57-2.76,3.67-1.11l48.45,73.05c.74,1.12,1.99,1.79,3.33,1.79h43.1c3.19,0,5.1-3.55,3.33-6.21Z"/>
    </g>
  </g>
</svg>