<?xml version="1.0" encoding="UTF-8"?>
<svg id="_레이어_2" data-name="레이어 2" xmlns="http://www.w3.org/2000/svg" viewBox="0 0 402.42 160">
  <defs>
    <style>
      .cls-1 {
        fill: #111;
        fill-rule: evenodd;
      }
    </style>
  </defs>
  <g id="_레이어_1-2" data-name="레이어 1">
    <g>
      <path class="cls-1" d="M342.42,130V6c0-3.31-2.69-6-6-6h-48c-3.31,0-6,2.69-6,6v148c0,3.31,2.69,6,6,6h108c3.31,0,6-2.69,6-6v-16c0-3.31-2.69-6-6-6h-52c-1.1,0-2-.9-2-2Z"/>
      <path class="cls-1" d="M92,6v58.39c0,1.1-.9,2-2,2h-28c-1.1,0-2-.9-2-2V6C60,2.69,57.31,0,54,0H6C2.69,0,0,2.69,0,6v148c0,3.31,2.69,6,6,6h48c3.31,0,6-2.69,6-6v-72.74c0-1.1.9-2,2-2h28c1.1,0,2,.9,2,2v72.74c0,3.31,2.69,6,6,6h16c3.31,0,6-2.69,6-6V6C120,2.69,117.31,0,114,0h-16c-3.31,0-6,2.69-6,6Z"/>
      <path class="cls-1" d="M270.83,150.69l-46.42-70.06c-.54-.81-.41-1.89.29-2.56l47.39-44.9c1.2-1.13,1.87-2.71,1.87-4.36V6C273.96,2.69,271.27,0,267.96,0h-47c-3.31,0-6,2.69-6,6v53.72c0,1.98-2.57,2.76-3.67,1.1L172.78,2.69C171.66,1.01,169.79,0,167.77,0h-33.77c-3.31,0-6,2.69-6,6v148c0,3.31,2.69,6,6,6h31c3.31,0,6-2.69,6-6v-67.74c0-1.98,2.57-2.76,3.67-1.11l47.86,72.16c1.11,1.68,2.99,2.68,5,2.68h38.3c4.78,0,7.64-5.33,5-9.31Z"/>
    </g>
  </g>
</svg>