<svg width="289" height="116" viewBox="0 0 289 116" fill="none" xmlns="http://www.w3.org/2000/svg">
<path d="M205.486 0.5H241.797C243.526 0.50011 244.928 1.90099 244.928 3.625V94.25C244.928 95.3244 245.806 96.2001 246.88 96.2002H285.369C287.098 96.2003 288.5 97.6012 288.5 99.3252V112.375C288.5 114.099 287.098 115.5 285.369 115.5H205.486C203.757 115.5 202.355 114.099 202.355 112.375V3.625C202.355 1.90098 203.757 0.500086 205.486 0.5Z" stroke="#111111"/>
<path d="M3.63086 0.5H39.9414C41.6703 0.50011 43.0723 1.90099 43.0723 3.625V46.6826C43.0723 47.757 43.9503 48.6327 45.0244 48.6328H65.3584C66.4326 48.6328 67.3105 47.757 67.3105 46.6826V3.625C67.3105 1.90104 68.7126 0.500189 70.4414 0.5H83.5137C85.2425 0.500134 86.6445 1.90101 86.6445 3.625V112.375C86.6445 114.099 85.2425 115.5 83.5137 115.5H70.4414C68.7126 115.5 67.3105 114.099 67.3105 112.375V58.9131C67.3103 57.8389 66.4324 56.9639 65.3584 56.9639H45.0244C43.9505 56.964 43.0725 57.8389 43.0723 58.9131V112.375C43.0723 114.099 41.6703 115.5 39.9414 115.5H3.63086C1.90197 115.5 0.5 114.099 0.5 112.375V3.625C0.5 1.90098 1.90197 0.500086 3.63086 0.5Z" stroke="#111111"/>
<path d="M95.1326 0.5H120.775C121.827 0.500056 122.803 1.0247 123.386 1.90039L151.571 44.3711C152.643 45.9853 155.152 45.2294 155.152 43.2969V3.625C155.152 1.90107 156.554 0.500241 158.283 0.5H193.867C195.596 0.5 196.999 1.90092 196.999 3.625V21.2061C196.999 22.0636 196.647 22.8883 196.023 23.4736L196.022 23.4746L161.382 56.2373L161.381 56.2393C160.701 56.889 160.57 57.9396 161.098 58.7324V58.7334L195.556 110.65L195.692 110.854C196.839 112.9 195.368 115.493 192.952 115.493H163.396C162.41 115.493 161.49 115.031 160.898 114.252L160.784 114.092L125.81 61.457L125.809 61.4561C124.737 59.8502 122.229 60.6067 122.228 62.5381V112.375C122.228 114.099 120.826 115.5 119.097 115.5H95.1326C93.4037 115.5 92.0017 114.099 92.0017 112.375V3.625C92.0017 1.90098 93.4037 0.500086 95.1326 0.5Z" stroke="#111111"/>
</svg>
